<?xml version="1.0" encoding="UTF-8" standalone="no"?>
<svg
   xmlns:dc="http://purl.org/dc/elements/1.1/"
   xmlns:cc="http://creativecommons.org/ns#"
   xmlns:rdf="http://www.w3.org/1999/02/22-rdf-syntax-ns#"
   xmlns:svg="http://www.w3.org/2000/svg"
   xmlns="http://www.w3.org/2000/svg"
   xmlns:sodipodi="http://sodipodi.sourceforge.net/DTD/sodipodi-0.dtd"
   xmlns:inkscape="http://www.inkscape.org/namespaces/inkscape"
   viewBox="0 0 582.48834 375.8103"
   height="375.8103"
   width="582.48834"
   xml:space="preserve"
   id="svg2"
   version="1.1"
   sodipodi:docname="GradientDescentGradientStep.svg"
   inkscape:version="0.92.2pre0 (973e216, 2017-07-25)"><sodipodi:namedview
     pagecolor="#ffffff"
     bordercolor="#666666"
     borderopacity="1"
     objecttolerance="10"
     gridtolerance="10"
     guidetolerance="10"
     inkscape:pageopacity="0"
     inkscape:pageshadow="2"
     inkscape:window-width="1801"
     inkscape:window-height="931"
     id="namedview55"
     showgrid="false"
     inkscape:zoom="1.9131993"
     inkscape:cx="196.63824"
     inkscape:cy="163.42444"
     inkscape:window-x="0"
     inkscape:window-y="621"
     inkscape:window-maximized="0"
     inkscape:current-layer="svg2" /><metadata
     id="metadata8"><rdf:RDF><cc:Work
         rdf:about=""><dc:format>image/svg+xml</dc:format><dc:type
           rdf:resource="http://purl.org/dc/dcmitype/StillImage" /><dc:title /></cc:Work></rdf:RDF></metadata><desc
     id="desc3">A second point on the U-shaped curve, this one a little closer to the minimum point.</desc><defs
     id="defs6"><clipPath
       id="clipPath22"
       clipPathUnits="userSpaceOnUse"><path
         id="path20"
         d="M 0,0 H 365760 V 205740 H 0 Z" /></clipPath></defs><path
     inkscape:connector-curvature="0"
     id="path36"
     style="fill:#000000;fill-opacity:0;fill-rule:evenodd;stroke:none;stroke-width:0.00262467"
     d="m 249.58648,99.112678 c 6.86927,26.300402 13.48748,122.586872 41.21571,157.802372 27.72824,35.21544 89.29985,62.40606 125.15374,53.49044 35.85387,-8.91566 69.78093,-70.54286 89.96948,-106.98426 20.18849,-36.44141 25.968,-93.0535 31.16158,-111.664192" /><path
     inkscape:connector-curvature="0"
     id="path38"
     style="fill:none;stroke:#595959;stroke-width:7.99998379;stroke-linecap:butt;stroke-linejoin:round;stroke-miterlimit:14.3355875;stroke-dasharray:none;stroke-opacity:1"
     d="m 249.58648,99.112678 c 6.86927,26.300402 13.48748,122.586872 41.21571,157.802372 27.72824,35.21544 89.29985,62.40606 125.15374,53.49044 35.85387,-8.91566 69.78093,-70.54286 89.96948,-106.98426 20.18849,-36.44141 25.968,-93.0535 31.16158,-111.664192" /><path
     inkscape:connector-curvature="0"
     id="path46"
     style="fill:#000000;fill-opacity:0;fill-rule:evenodd;stroke:none;stroke-width:0.00262467"
     d="M 209.577,318.7487 208.22267,76.544465" /><path
     inkscape:connector-curvature="0"
     id="path48"
     style="fill:none;stroke:#595959;stroke-width:2.9999938;stroke-linecap:butt;stroke-linejoin:round;stroke-miterlimit:14.3355875;stroke-dasharray:none;stroke-opacity:1"
     d="M 209.5195,308.46762 208.28018,86.825545" /><path
     inkscape:connector-curvature="0"
     id="path50"
     style="fill:#595959;fill-opacity:1;fill-rule:evenodd;stroke:#595959;stroke-width:2.9999938;stroke-linecap:butt;stroke-linejoin:miter;stroke-miterlimit:11.47371292;stroke-dasharray:none;stroke-opacity:1"
     d="m 209.5195,308.46762 -3.39254,-3.35483 3.42552,9.25027 3.32187,-9.28799 z" /><path
     inkscape:connector-curvature="0"
     id="path52"
     style="fill:#595959;fill-opacity:1;fill-rule:evenodd;stroke:#595959;stroke-width:2.9999938;stroke-linecap:butt;stroke-linejoin:miter;stroke-miterlimit:11.47371292;stroke-dasharray:none;stroke-opacity:1"
     d="m 208.28018,86.825545 3.39254,3.354826 -3.42553,-9.25028 -3.32185,9.288 z" /><path
     inkscape:connector-curvature="0"
     d="m 262.83543,210.61243 v 0 c 0,-3.60941 2.926,-6.53542 6.53541,-6.53542 v 0 c 1.73331,0 3.39561,0.68854 4.62125,1.91418 1.22562,1.22563 1.91418,2.88794 1.91418,4.62124 v 0 c 0,3.60942 -2.92602,6.53542 -6.53543,6.53542 v 0 c -3.60941,0 -6.53541,-2.926 -6.53541,-6.53542 z"
     style="fill:#fff2cc;fill-opacity:1;fill-rule:evenodd;stroke:none;stroke-width:0.00262467"
     id="path58" /><path
     inkscape:connector-curvature="0"
     id="path60"
     style="fill:none;stroke:#595959;stroke-width:0.99999797;stroke-linecap:butt;stroke-linejoin:round;stroke-miterlimit:14.3355875;stroke-dasharray:none;stroke-opacity:1"
     d="m 262.83543,210.61243 v 0 c 0,-3.60941 2.926,-6.53542 6.53541,-6.53542 v 0 c 1.73331,0 3.39561,0.68854 4.62125,1.91418 1.22562,1.22563 1.91418,2.88794 1.91418,4.62124 v 0 c 0,3.60942 -2.92602,6.53542 -6.53543,6.53542 v 0 c -3.60941,0 -6.53541,-2.926 -6.53541,-6.53542 z" /><path
     inkscape:connector-curvature="0"
     d="m 0.49999898,116.93021 v 0 c 0,-7.25652 5.88256732,-13.13908 13.13908102,-13.13908 h 77.585145 v 0 h 38.881805 12.78213 c 3.4847,0 6.82668,1.38429 9.29074,3.84835 2.46405,2.46405 3.84834,5.80604 3.84834,9.29073 v 32.84771 l 103.87043,56.81101 -103.87043,-37.1024 v 0 c 0,7.25651 -5.88256,13.13908 -13.13908,13.13908 H 130.10603 91.224225 v 0 H 13.63908 c -7.2565137,0 -13.13908102,-5.88257 -13.13908102,-13.13908 v 0 -19.70861 0 z"
     style="fill:#fce5cd;fill-opacity:1;fill-rule:evenodd;stroke:none;stroke-width:0.00262467"
     id="path66" /><path
     inkscape:connector-curvature="0"
     id="path68"
     style="fill:none;stroke:#595959;stroke-width:0.99999797;stroke-linecap:butt;stroke-linejoin:round;stroke-miterlimit:14.3355875;stroke-dasharray:none;stroke-opacity:1"
     d="m 0.49999898,116.93021 v 0 c 0,-7.25652 5.88256732,-13.13908 13.13908102,-13.13908 h 77.585145 v 0 h 38.881805 12.78213 c 3.4847,0 6.82668,1.38429 9.29074,3.84835 2.46405,2.46405 3.84834,5.80604 3.84834,9.29073 v 32.84771 l 103.87043,56.81101 -103.87043,-37.1024 v 0 c 0,7.25651 -5.88256,13.13908 -13.13908,13.13908 H 130.10603 91.224225 v 0 H 13.63908 c -7.2565137,0 -13.13908102,-5.88257 -13.13908102,-13.13908 v 0 -19.70861 0 z" /><text
     id="text78"
     style="font-variant:normal;font-weight:normal;font-size:18.66662788px;font-family:ArialMT;-inkscape-font-specification:ArialMT;writing-mode:lr-tb;fill:#000000;fill-opacity:1;fill-rule:nonzero;stroke:none;stroke-width:0.99999797"
     x="16.641792"
     y="150.12834"><tspan
       id="tspan76"
       y="150.12834"
       x="16.641792"
       style="font-style:normal;font-variant:normal;font-weight:normal;font-stretch:normal;font-family:sans-serif;-inkscape-font-specification:sans-serif;stroke-width:0.99999797">starting point</tspan></text>
<path
     inkscape:connector-curvature="0"
     id="path88"
     style="fill:#000000;fill-opacity:0;fill-rule:evenodd;stroke:none;stroke-width:0.00262467"
     d="m 275.90627,210.61243 h 14.8976" /><path
     inkscape:connector-curvature="0"
     id="path90"
     style="fill:none;stroke:#ff0000;stroke-width:0.99999797;stroke-linecap:butt;stroke-linejoin:round;stroke-miterlimit:14.3355875;stroke-dasharray:none;stroke-opacity:1"
     d="m 275.90627,210.61243 h 8.89761" /><path
     inkscape:connector-curvature="0"
     id="path92"
     style="fill:#ff0000;fill-opacity:1;fill-rule:evenodd;stroke:#ff0000;stroke-width:0.99999797;stroke-linecap:butt;stroke-linejoin:miter;stroke-miterlimit:11.47371292;stroke-dasharray:none;stroke-opacity:1"
     d="m 284.80388,212.26417 4.53811,-1.65174 -4.53811,-1.65173 z" /><path
     inkscape:connector-curvature="0"
     id="path100"
     style="fill:#000000;fill-opacity:0;fill-rule:evenodd;stroke:none;stroke-width:0.00262467"
     d="M 225.70164,337.31822 H 582.48833" /><path
     inkscape:connector-curvature="0"
     id="path102"
     style="fill:none;stroke:#595959;stroke-width:2.9999938;stroke-linecap:butt;stroke-linejoin:round;stroke-miterlimit:14.3355875;stroke-dasharray:none;stroke-opacity:1"
     d="M 235.98288,337.31822 H 572.20709" /><path
     inkscape:connector-curvature="0"
     id="path104"
     style="fill:#595959;fill-opacity:1;fill-rule:evenodd;stroke:#595959;stroke-width:2.9999938;stroke-linecap:butt;stroke-linejoin:miter;stroke-miterlimit:11.47371292;stroke-dasharray:none;stroke-opacity:1"
     d="m 235.98288,337.31822 3.37375,-3.37375 -9.26929,3.37375 9.26929,3.37374 z" /><path
     inkscape:connector-curvature="0"
     id="path106"
     style="fill:#595959;fill-opacity:1;fill-rule:evenodd;stroke:#595959;stroke-width:2.9999938;stroke-linecap:butt;stroke-linejoin:miter;stroke-miterlimit:11.47371292;stroke-dasharray:none;stroke-opacity:1"
     d="m 572.20709,337.31822 -3.37375,3.37374 9.26929,-3.37374 -9.26929,-3.37375 z" /><path
     inkscape:connector-curvature="0"
     id="path114"
     style="fill:#000000;fill-opacity:0;fill-rule:evenodd;stroke:none;stroke-width:0.00262467"
     d="M 273.44695,341.89038 H 513.226 v 30.20466 H 273.44695 Z" /><path
     inkscape:connector-curvature="0"
     id="path142"
     style="fill:#000000;fill-opacity:0;fill-rule:evenodd;stroke:none;stroke-width:0.00262467"
     d="m 144.05876,191.455 h 60.44083 v 30.20466 h -60.44083 z" /><text
     id="text152"
     style="font-variant:normal;font-weight:normal;font-size:18.66662788px;font-family:ArialMT;-inkscape-font-specification:ArialMT;writing-mode:lr-tb;fill:#000000;fill-opacity:1;fill-rule:nonzero;stroke:none;stroke-width:0.99999797"
     x="157.69081"
     y="218.37494"><tspan
       id="tspan150"
       y="218.37494"
       x="157.69081"
       style="font-style:normal;font-variant:normal;font-weight:normal;font-stretch:normal;font-family:sans-serif;-inkscape-font-specification:sans-serif;stroke-width:0.99999797">loss</tspan></text>
<path
     inkscape:connector-curvature="0"
     d="m 262.83543,13.63908 v 0 c 0,-7.2565201 5.88258,-13.13907994 13.13908,-13.13907994 h 12.78212 v 0 h 38.88181 77.58514 c 3.4847,0 6.82668,1.38429334 9.29075,3.84834654 2.46404,2.4640533 3.84833,5.8060264 3.84833,9.2907334 v 32.847706 0 19.708612 0 c 0,7.25652 -5.88258,13.13908 -13.13908,13.13908 H 327.63844 L 281.36027,200.96981 288.75663,79.334478 h -12.78212 c -7.2565,0 -13.13908,-5.88256 -13.13908,-13.13908 v 0 -19.708612 0 z"
     style="fill:#ead1dc;fill-opacity:1;fill-rule:evenodd;stroke:none;stroke-width:0.00262467"
     id="path160" /><path
     inkscape:connector-curvature="0"
     id="path162"
     style="fill:none;stroke:#595959;stroke-width:0.99999797;stroke-linecap:butt;stroke-linejoin:round;stroke-miterlimit:14.3355875;stroke-dasharray:none;stroke-opacity:1"
     d="m 262.83543,13.63908 v 0 c 0,-7.2565201 5.88258,-13.13907994 13.13908,-13.13907994 h 12.78212 v 0 h 38.88181 77.58514 c 3.4847,0 6.82668,1.38429334 9.29075,3.84834654 2.46404,2.4640533 3.84833,5.8060264 3.84833,9.2907334 v 32.847706 0 19.708612 0 c 0,7.25652 -5.88258,13.13908 -13.13908,13.13908 H 327.63844 L 281.36027,200.96981 288.75663,79.334478 h -12.78212 c -7.2565,0 -13.13908,-5.88256 -13.13908,-13.13908 v 0 -19.708612 0 z" /><text
     id="text172"
     style="font-variant:normal;font-weight:normal;font-size:18.66662788px;font-family:ArialMT;-inkscape-font-specification:ArialMT;writing-mode:lr-tb;fill:#000000;fill-opacity:1;fill-rule:nonzero;stroke:none;stroke-width:0.99999797"
     x="299.11902"
     y="35.83725"><tspan
       id="tspan170"
       y="35.83725"
       x="299.11902"
       style="stroke-width:0.99999797">(<tspan
   style="font-style:normal;font-variant:normal;font-weight:normal;font-stretch:normal;font-family:sans-serif;-inkscape-font-specification:sans-serif;stroke-width:0.99999797"
   id="tspan1581">negative) </tspan></tspan></text>
<text
     id="text176"
     style="font-variant:normal;font-weight:normal;font-size:18.66662788px;font-family:ArialMT;-inkscape-font-specification:ArialMT;writing-mode:lr-tb;fill:#000000;fill-opacity:1;fill-rule:nonzero;stroke:none;stroke-width:0.99999797"
     x="306.8894"
     y="57.837208"><tspan
       id="tspan174"
       y="57.837208"
       x="306.8894"
       style="font-style:normal;font-variant:normal;font-weight:normal;font-stretch:normal;font-family:sans-serif;-inkscape-font-specification:sans-serif;stroke-width:0.99999797">gradient</tspan></text>
<path
     inkscape:connector-curvature="0"
     id="path186"
     style="fill:#000000;fill-opacity:0;fill-rule:evenodd;stroke:none;stroke-width:0.00262467"
     d="m 290.81175,210.61506 v 41.32275" /><path
     inkscape:connector-curvature="0"
     id="path188"
     style="fill:none;stroke:#1155cc;stroke-width:0.99999797;stroke-linecap:butt;stroke-linejoin:round;stroke-miterlimit:14.3355875;stroke-dasharray:none;stroke-opacity:1"
     d="m 290.81175,210.61506 v 37.89567" /><path
     inkscape:connector-curvature="0"
     id="path190"
     style="fill:#1155cc;fill-opacity:1;fill-rule:evenodd;stroke:#1155cc;stroke-width:0.99999797;stroke-linecap:butt;stroke-linejoin:miter;stroke-miterlimit:11.47371292;stroke-dasharray:none;stroke-opacity:1"
     d="m 290.81175,248.51073 -1.12459,-1.12459 1.12459,3.08977 1.12458,-3.08977 z" /><path
     inkscape:connector-curvature="0"
     d="m 284.27632,258.47323 v 0 c 0,-3.60942 2.92601,-6.53542 6.53543,-6.53542 v 0 c 1.7333,0 3.39561,0.68854 4.62125,1.91418 1.22561,1.22563 1.91416,2.88794 1.91416,4.62124 v 0 c 0,3.60942 -2.926,6.53542 -6.53541,6.53542 v 0 c -3.60942,0 -6.53543,-2.926 -6.53543,-6.53542 z"
     style="fill:#fff2cc;fill-opacity:1;fill-rule:evenodd;stroke:none;stroke-width:0.00262467"
     id="path196" /><path
     inkscape:connector-curvature="0"
     id="path198"
     style="fill:none;stroke:#595959;stroke-width:0.99999797;stroke-linecap:butt;stroke-linejoin:round;stroke-miterlimit:14.3355875;stroke-dasharray:none;stroke-opacity:1"
     d="m 284.27632,258.47323 v 0 c 0,-3.60942 2.92601,-6.53542 6.53543,-6.53542 v 0 c 1.7333,0 3.39561,0.68854 4.62125,1.91418 1.22561,1.22563 1.91416,2.88794 1.91416,4.62124 v 0 c 0,3.60942 -2.926,6.53542 -6.53541,6.53542 v 0 c -3.60942,0 -6.53543,-2.926 -6.53543,-6.53542 z" /><path
     inkscape:connector-curvature="0"
     d="m 0.49999898,253.05329 v 0 c 0,-7.2565 5.88256732,-13.13908 13.13908102,-13.13908 h 77.585145 v 0 h 38.881805 12.78213 c 3.4847,0 6.82668,1.38429 9.29074,3.84837 2.46405,2.46403 3.84834,5.80603 3.84834,9.29071 v 0 l 123.36421,10.24953 -123.36421,9.45909 v 32.84771 c 0,7.25649 -5.88256,13.13908 -13.13908,13.13908 H 130.10603 91.224225 v 0 H 13.63908 c -7.2565137,0 -13.13908102,-5.88259 -13.13908102,-13.13908 v -32.84771 z"
     style="fill:#d9ead3;fill-opacity:1;fill-rule:evenodd;stroke:none;stroke-width:0.00262467"
     id="path204" /><path
     inkscape:connector-curvature="0"
     id="path206"
     style="fill:none;stroke:#595959;stroke-width:0.99999797;stroke-linecap:butt;stroke-linejoin:round;stroke-miterlimit:14.3355875;stroke-dasharray:none;stroke-opacity:1"
     d="m 0.49999898,253.05329 v 0 c 0,-7.2565 5.88256732,-13.13908 13.13908102,-13.13908 h 77.585145 v 0 h 38.881805 12.78213 c 3.4847,0 6.82668,1.38429 9.29074,3.84837 2.46405,2.46403 3.84834,5.80603 3.84834,9.29071 v 0 l 123.36421,10.24953 -123.36421,9.45909 v 32.84771 c 0,7.25649 -5.88256,13.13908 -13.13908,13.13908 H 130.10603 91.224225 v 0 H 13.63908 c -7.2565137,0 -13.13908102,-5.88259 -13.13908102,-13.13908 v -32.84771 z" /><text
     xml:space="preserve"
     style="font-style:normal;font-weight:normal;font-size:40px;line-height:1.25;font-family:sans-serif;letter-spacing:0px;word-spacing:0px;fill:#000000;fill-opacity:1;stroke:none;stroke-linecap:square;stroke-miterlimit:10"
     x="326.61298"
     y="362.19708"
     id="text3761"><tspan
       sodipodi:role="line"
       id="tspan3759"
       x="326.61298"
       y="362.19708"
       style="font-size:17.33333397px">value of weight <tspan
   style="font-style:italic;font-variant:normal;font-weight:normal;font-stretch:normal;font-size:17.33333397px;font-family:'Times New Roman';-inkscape-font-specification:'Times New Roman, Italic';font-variant-ligatures:normal;font-variant-caps:normal;font-variant-numeric:normal;font-feature-settings:normal;text-align:start;writing-mode:lr-tb;text-anchor:start"
   id="tspan832">w</tspan><tspan
   style="font-style:italic;font-variant:normal;font-weight:normal;font-stretch:normal;font-size:10.66666667px;font-family:'Times New Roman';-inkscape-font-specification:'Times New Roman, Italic';font-variant-ligatures:normal;font-variant-caps:normal;font-variant-numeric:normal;font-feature-settings:normal;text-align:start;writing-mode:lr;baseline-shift:sub;text-anchor:start"
   id="tspan3763">i</tspan></tspan></text>
<text
     y="286.12836"
     x="30.754278"
     style="font-variant:normal;font-weight:normal;font-size:18.66662788px;line-height:100%;font-family:ArialMT;-inkscape-font-specification:ArialMT;writing-mode:lr-tb;fill:#000000;fill-opacity:1;fill-rule:nonzero;stroke:none;stroke-width:0.99999797"
     id="text921"><tspan
       style="font-style:normal;font-variant:normal;font-weight:normal;font-stretch:normal;line-height:100%;font-family:sans-serif;-inkscape-font-specification:sans-serif;stroke-width:0.99999797"
       x="30.754278"
       y="286.12836"
       id="tspan919">next point</tspan></text>
</svg>