<?xml version="1.0" encoding="utf-8"?>
<!-- Generator: Adobe Illustrator 27.2.0, SVG Export Plug-In . SVG Version: 6.00 Build 0)  -->
<svg version="1.1" id="Layer_1" xmlns="http://www.w3.org/2000/svg" xmlns:xlink="http://www.w3.org/1999/xlink" x="0px" y="0px"
	 width="811px" height="428.5px" viewBox="0 0 811 428.5" style="enable-background:new 0 0 811 428.5;" xml:space="preserve">
<style type="text/css">
	.st0{fill:#0476A8;}
	.st1{fill:#D68828;}
	.st2{fill:#474748;}
</style>
<g>
	<circle class="st0" cx="218.2" cy="80.1" r="4.2"/>
</g>
<g>
	<circle class="st0" cx="250" cy="80.4" r="4.2"/>
</g>
<g>
	<circle class="st0" cx="272.6" cy="116.9" r="4.2"/>
</g>
<g>
	<circle class="st0" cx="254.7" cy="153.1" r="4.2"/>
</g>
<g>
	<circle class="st0" cx="302.9" cy="146.3" r="4.2"/>
</g>
<g>
	<circle class="st0" cx="293.3" cy="165.1" r="4.2"/>
</g>
<g>
	<circle class="st0" cx="322.2" cy="141.7" r="4.2"/>
</g>
<g>
	<circle class="st0" cx="300.2" cy="105.7" r="4.2"/>
</g>
<g>
	<circle class="st0" cx="311.6" cy="91.3" r="4.2"/>
</g>
<g>
	<circle class="st0" cx="327.7" cy="95.6" r="4.2"/>
</g>
<g>
	<circle class="st0" cx="323.9" cy="109.8" r="4.2"/>
</g>
<g>
	<circle class="st0" cx="244.9" cy="100.3" r="4.2"/>
</g>
<g>
	<circle class="st0" cx="221.7" cy="98.1" r="4.2"/>
</g>
<g>
	<circle class="st0" cx="237.2" cy="116.6" r="4.2"/>
</g>
<g>
	<circle class="st0" cx="218.2" cy="116.4" r="4.2"/>
</g>
<g>
	<circle class="st1" cx="293.6" cy="120.4" r="4.2"/>
</g>
<g>
	<circle class="st1" cx="310.5" cy="127.5" r="4.2"/>
</g>
<g>
	<circle class="st1" cx="255.5" cy="118" r="4.2"/>
</g>
<g>
	<circle class="st1" cx="244" cy="136.2" r="4.2"/>
</g>
<g>
	<circle class="st1" cx="329" cy="167.3" r="4.2"/>
</g>
<g>
	<circle class="st1" cx="321.9" cy="185.1" r="4.2"/>
</g>
<g>
	<circle class="st1" cx="313.3" cy="165.5" r="4.2"/>
</g>
<g>
	<circle class="st1" cx="298.9" cy="181.3" r="4.2"/>
</g>
<g>
	<circle class="st1" cx="277.3" cy="182.1" r="4.2"/>
</g>
<g>
	<circle class="st1" cx="224.8" cy="141.3" r="4.2"/>
</g>
<g>
	<circle class="st1" cx="215.3" cy="160.1" r="4.2"/>
</g>
<g>
	<circle class="st1" cx="216" cy="181" r="4.2"/>
</g>
<g>
	<circle class="st1" cx="235.2" cy="166.6" r="4.2"/>
</g>
<g>
	<circle class="st1" cx="247" cy="177.7" r="4.2"/>
</g>
<g>
	<circle class="st1" cx="257.4" cy="168.8" r="4.2"/>
</g>
<g>
	<circle class="st1" cx="273.4" cy="156.3" r="4.2"/>
</g>
<g>
	<circle class="st1" cx="270.5" cy="138.2" r="4.2"/>
</g>
<g>
	<polygon class="st2" points="346.7,198.3 196.7,198.3 196.7,66.1 198.7,66.1 198.7,196.3 346.7,196.3 	"/>
</g>
<g>
	<path class="st2" d="M294.1,174.2c-4.3,0-8.9-2.4-11.9-6.4c-2.4-3.2-6.9-12.1,1.7-25.6l0.1-0.1c5-6.3,12.9-6.6,20.5-6.9
		c3.8-0.1,7.8-0.3,11.1-1.2c3-1.1,5.1-3.9,5.6-7.4c0.5-3.5-0.7-6.8-3.3-8.8c-4.5-3.5-10.2-3.1-16.2-2.8c-3.6,0.2-7.3,0.4-10.7-0.2
		l-0.3-0.1l-0.2-0.2c-2-2.2-2.3-5.5-2.5-8.7c-0.4-5.4-0.9-8.7-6.1-8.8c-3.3,0.1-5.5,0.8-6.4,2.3c-1.6,2.4,0.2,7,2,11.3
		c1.4,3.5,2.7,6.8,2.7,9.6l0,0.1c-0.4,2.8-2.8,5.3-6.5,7l-0.2,0.1c-12.3,2.2-11.5,10.2-10.7,18.7c0.7,7.5,1.5,15.3-8.9,16.5l-0.2,0
		l-0.2-0.1c-7.6-2.1-11.7-4.8-12.5-8.3c-1.3-5.3,4.9-11,11.5-17.1c5.7-5.2,11.5-10.6,12.1-15.4l0-0.1c0.9-3.7-0.4-7.4-3.5-10.1
		c-3.2-2.8-7.8-3.9-11.1-2.7c-2.6,1-4.3,3.4-4.7,6.9c0,0.8,0.1,1.6,0.3,2.4c0.4,2.4,0.8,5.1-1.8,7.5c-1.6,1.5-4.2,0.5-6.5-0.4
		c-0.9-0.3-1.8-0.7-2.3-0.7c-4.4-0.4-6.4,1.2-9.8,4c-0.5,0.4-1,0.8-1.5,1.2c-3.7,3-7.1,4-10,3c-6.9-2.4-9.6-15-12.1-26.2
		c-0.4-2-0.9-3.9-1.3-5.7l1.9-0.5c0.4,1.8,0.9,3.7,1.3,5.7c2.2,10.1,5,22.7,10.8,24.7c2.2,0.8,5-0.1,8.1-2.6c0.5-0.4,1-0.8,1.5-1.2
		c3.5-2.9,6-5,11.3-4.5c0.8,0.1,1.7,0.4,2.8,0.9c1.5,0.6,3.7,1.4,4.4,0.8c1.9-1.7,1.6-3.5,1.2-5.8c-0.1-0.9-0.3-1.8-0.3-2.8l0-0.1
		c0.5-4.3,2.6-7.4,6-8.6c4-1.5,9.3-0.3,13.1,3c3.7,3.2,5.2,7.6,4.1,12c-0.7,5.5-6.9,11.1-12.8,16.5c-5.9,5.4-12,11-11,15.2
		c0.6,2.7,4.3,5,10.9,6.8c7.8-1,7.7-6.1,6.9-14.3c-0.8-8.1-1.8-18.3,12.2-20.8c1.8-0.8,4.7-2.6,5.2-5.4c0-2.4-1.3-5.6-2.6-8.7
		c-2-4.9-4-9.9-1.8-13.2c1.3-2,4-3,8.1-3.2c7.4,0.1,7.8,6,8.1,10.7c0.2,2.9,0.4,5.6,1.7,7.3c3,0.5,6.3,0.3,9.8,0.1
		c6.1-0.4,12.5-0.8,17.6,3.2c3.2,2.5,4.7,6.5,4,10.7c-0.6,4.2-3.2,7.6-7,9c-3.7,1-7.7,1.2-11.7,1.3c-7.5,0.3-14.6,0.6-19,6.1
		c-5.6,8.8-6.2,17.3-1.7,23.3c3.2,4.3,8.4,6.4,12.7,5.3c3.5-1,5.6-3.9,6.1-8.4c0.4-4.3,3.8-7.7,8.1-8.2c7.5-0.9,14.6-4.9,19-10.8
		l1.6,1.2c-4.7,6.3-12.3,10.6-20.3,11.6c-3.4,0.4-6,3.1-6.3,6.4c-0.5,5.3-3.3,9-7.6,10.1C296.1,174.1,295.1,174.2,294.1,174.2z"/>
</g>
<g>
	<circle class="st0" cx="266.4" cy="92.7" r="4.2"/>
</g>
<g>
	<circle class="st0" cx="284.6" cy="90.7" r="4.2"/>
</g>
<g>
	<circle class="st1" cx="283" cy="104.6" r="4.2"/>
</g>
<g>
	<circle class="st0" cx="428.4" cy="80.1" r="4.2"/>
</g>
<g>
	<circle class="st0" cx="460.2" cy="80.4" r="4.2"/>
</g>
<g>
	<circle class="st0" cx="482.9" cy="116.9" r="4.2"/>
</g>
<g>
	<circle class="st0" cx="464.9" cy="153.1" r="4.2"/>
</g>
<g>
	<circle class="st0" cx="513.1" cy="146.3" r="4.2"/>
</g>
<g>
	<circle class="st0" cx="503.6" cy="165.1" r="4.2"/>
</g>
<g>
	<circle class="st0" cx="532.4" cy="141.7" r="4.2"/>
</g>
<g>
	<circle class="st0" cx="476.6" cy="92.7" r="4.2"/>
</g>
<g>
	<circle class="st0" cx="494.8" cy="90.7" r="4.2"/>
</g>
<g>
	<circle class="st0" cx="510.4" cy="105.7" r="4.2"/>
</g>
<g>
	<circle class="st0" cx="521.8" cy="91.3" r="4.2"/>
</g>
<g>
	<circle class="st0" cx="537.9" cy="95.6" r="4.2"/>
</g>
<g>
	<circle class="st0" cx="534.1" cy="109.8" r="4.2"/>
</g>
<g>
	<circle class="st0" cx="455.1" cy="100.3" r="4.2"/>
</g>
<g>
	<circle class="st0" cx="431.9" cy="98.1" r="4.2"/>
</g>
<g>
	<circle class="st0" cx="447.4" cy="116.6" r="4.2"/>
</g>
<g>
	<circle class="st0" cx="428.4" cy="116.4" r="4.2"/>
</g>
<g>
	<circle class="st1" cx="493.2" cy="104.6" r="4.2"/>
</g>
<g>
	<circle class="st1" cx="503.8" cy="120.4" r="4.2"/>
</g>
<g>
	<circle class="st1" cx="520.7" cy="127.5" r="4.2"/>
</g>
<g>
	<circle class="st1" cx="465.7" cy="118" r="4.2"/>
</g>
<g>
	<circle class="st1" cx="454.2" cy="136.2" r="4.2"/>
</g>
<g>
	<circle class="st1" cx="539.2" cy="167.3" r="4.2"/>
</g>
<g>
	<circle class="st1" cx="532.1" cy="185.1" r="4.2"/>
</g>
<g>
	<circle class="st1" cx="523.6" cy="165.5" r="4.2"/>
</g>
<g>
	<circle class="st1" cx="509.1" cy="181.3" r="4.2"/>
</g>
<g>
	<circle class="st1" cx="487.5" cy="182.1" r="4.2"/>
</g>
<g>
	<circle class="st1" cx="435" cy="141.3" r="4.2"/>
</g>
<g>
	<circle class="st1" cx="425.5" cy="160.1" r="4.2"/>
</g>
<g>
	<circle class="st1" cx="426.2" cy="181" r="4.2"/>
</g>
<g>
	<circle class="st1" cx="445.4" cy="166.6" r="4.2"/>
</g>
<g>
	<circle class="st1" cx="457.2" cy="177.7" r="4.2"/>
</g>
<g>
	<circle class="st1" cx="467.6" cy="168.8" r="4.2"/>
</g>
<g>
	<circle class="st1" cx="483.6" cy="156.3" r="4.2"/>
</g>
<g>
	<circle class="st1" cx="480.7" cy="138.2" r="4.2"/>
</g>
<g>
	<polygon class="st2" points="556.9,198.3 406.9,198.3 406.9,66.1 408.9,66.1 408.9,196.3 556.9,196.3 	"/>
</g>
<g>
	<path class="st2" d="M540.8,180.3c-0.1-0.1-7.4-14.5-18.1-30.4c-9.8-14.6-23-31.8-38.6-35.5c-11.6-2.8-22.3,4.7-33.7,12.6
		c-0.9,0.6-1.7,1.2-2.6,1.8c-15.7,10.8-30.3,22-30.5,22.1l-1.2-1.6c0.1-0.1,14.9-11.3,30.6-22.2c0.9-0.6,1.7-1.2,2.6-1.8
		c11.7-8.2,22.8-15.9,35.3-12.9c16.3,3.9,29.8,21.5,39.8,36.4c10.7,16,18.1,30.5,18.2,30.6L540.8,180.3z"/>
</g>
<g>
	<circle class="st0" cx="629.3" cy="80.1" r="4.2"/>
</g>
<g>
	<circle class="st0" cx="661.2" cy="80.4" r="4.2"/>
</g>
<g>
	<circle class="st0" cx="683.8" cy="116.9" r="4.2"/>
</g>
<g>
	<circle class="st0" cx="665.8" cy="153.1" r="4.2"/>
</g>
<g>
	<circle class="st0" cx="714" cy="146.3" r="4.2"/>
</g>
<g>
	<circle class="st0" cx="704.5" cy="165.1" r="4.2"/>
</g>
<g>
	<circle class="st0" cx="733.4" cy="141.7" r="4.2"/>
</g>
<g>
	<circle class="st0" cx="677.5" cy="92.7" r="4.2"/>
</g>
<g>
	<circle class="st0" cx="695.8" cy="90.7" r="4.2"/>
</g>
<g>
	<circle class="st0" cx="711.3" cy="105.7" r="4.2"/>
</g>
<g>
	<circle class="st0" cx="722.7" cy="91.3" r="4.2"/>
</g>
<g>
	<circle class="st0" cx="738.8" cy="95.6" r="4.2"/>
</g>
<g>
	<circle class="st0" cx="735" cy="109.8" r="4.2"/>
</g>
<g>
	<circle class="st0" cx="656" cy="100.3" r="4.2"/>
</g>
<g>
	<circle class="st0" cx="632.8" cy="98.1" r="4.2"/>
</g>
<g>
	<circle class="st0" cx="648.4" cy="116.6" r="4.2"/>
</g>
<g>
	<circle class="st0" cx="629.3" cy="116.4" r="4.2"/>
</g>
<g>
	<circle class="st1" cx="694.1" cy="104.6" r="4.2"/>
</g>
<g>
	<circle class="st1" cx="704.8" cy="120.4" r="4.2"/>
</g>
<g>
	<circle class="st1" cx="721.7" cy="127.5" r="4.2"/>
</g>
<g>
	<circle class="st1" cx="666.6" cy="118" r="4.2"/>
</g>
<g>
	<circle class="st1" cx="655.2" cy="136.2" r="4.2"/>
</g>
<g>
	<circle class="st1" cx="740.2" cy="167.3" r="4.2"/>
</g>
<g>
	<circle class="st1" cx="733" cy="185.1" r="4.2"/>
</g>
<g>
	<circle class="st1" cx="724.5" cy="165.5" r="4.2"/>
</g>
<g>
	<circle class="st1" cx="710" cy="181.3" r="4.2"/>
</g>
<g>
	<circle class="st1" cx="688.4" cy="182.1" r="4.2"/>
</g>
<g>
	<circle class="st1" cx="636" cy="141.3" r="4.2"/>
</g>
<g>
	<circle class="st1" cx="626.5" cy="160.1" r="4.2"/>
</g>
<g>
	<circle class="st1" cx="627.1" cy="181" r="4.2"/>
</g>
<g>
	<circle class="st1" cx="646.4" cy="166.6" r="4.2"/>
</g>
<g>
	<circle class="st1" cx="658.1" cy="177.7" r="4.2"/>
</g>
<g>
	<circle class="st1" cx="668.5" cy="168.8" r="4.2"/>
</g>
<g>
	<circle class="st1" cx="684.5" cy="156.3" r="4.2"/>
</g>
<g>
	<circle class="st1" cx="681.6" cy="138.2" r="4.2"/>
</g>
<g>
	<polygon class="st2" points="757.8,198.3 607.9,198.3 607.9,66.1 609.9,66.1 609.9,196.3 757.8,196.3 	"/>
</g>
<g>
	
		<rect x="678.2" y="75.4" transform="matrix(0.4104 -0.9119 0.9119 0.4104 266.3269 706.176)" class="st2" width="2" height="143.4"/>
</g>
<g>
	<circle class="st1" cx="216.1" cy="317.4" r="3.3"/>
</g>
<g>
	<circle class="st1" cx="221.2" cy="331.2" r="3.3"/>
</g>
<g>
	<circle class="st1" cx="218.9" cy="348.5" r="3.3"/>
</g>
<g>
	<circle class="st1" cx="236.1" cy="334.3" r="3.3"/>
</g>
<g>
	<circle class="st1" cx="259.1" cy="357.3" r="3.3"/>
</g>
<g>
	<circle class="st1" cx="291.1" cy="334.5" r="3.3"/>
</g>
<g>
	<circle class="st1" cx="247.9" cy="345.9" r="3.3"/>
</g>
<g>
	<circle class="st1" cx="235.4" cy="346.6" r="3.3"/>
</g>
<g>
	<circle class="st1" cx="295.6" cy="349.7" r="3.3"/>
</g>
<g>
	<circle class="st1" cx="277.8" cy="341.3" r="3.3"/>
</g>
<g>
	<circle class="st1" cx="278" cy="360.2" r="3.3"/>
</g>
<g>
	<circle class="st1" cx="250.2" cy="361.6" r="3.3"/>
</g>
<g>
	<circle class="st1" cx="263.3" cy="341" r="3.3"/>
</g>
<g>
	<circle class="st1" cx="310.8" cy="344.7" r="3.3"/>
</g>
<g>
	<circle class="st1" cx="316.4" cy="323.5" r="3.3"/>
</g>
<g>
	<circle class="st1" cx="330.3" cy="338.9" r="3.3"/>
</g>
<g>
	<circle class="st1" cx="327.6" cy="324.5" r="3.3"/>
</g>
<g>
	<circle class="st1" cx="330.2" cy="303.7" r="3.3"/>
</g>
<g>
	<circle class="st1" cx="338" cy="311.9" r="3.3"/>
</g>
<g>
	<circle class="st1" cx="349.1" cy="319.5" r="3.3"/>
</g>
<g>
	<circle class="st1" cx="342.4" cy="332.2" r="3.3"/>
</g>
<g>
	<circle class="st1" cx="301.7" cy="331.9" r="3.3"/>
</g>
<g>
	<path class="st0" d="M250.1,359.8c-0.5,0-1.1-0.1-1.6-0.3c-5.3-2.4-6.2-7.5-7-12.5c-0.4-2.5-0.9-5.1-1.9-7.2
		c-1.6-3.4-3.3-5.2-5-5.4c-2.5-0.4-5.2,2.6-7.5,5.2c-2.5,2.8-4.7,5.2-7,4.3c-2.5-0.9-4.4-5.4-5.3-24.3l2-0.1c0.8,17.7,2.6,22,4,22.5
		c1,0.4,3-1.8,4.8-3.8c2.7-3,5.8-6.4,9.3-5.9c2.4,0.4,4.5,2.5,6.5,6.5c1.1,2.4,1.6,5.1,2.1,7.8c0.8,4.7,1.5,9.1,5.8,11
		c0.7,0.2,1.4,0.2,2-0.1c1.9-1,3.1-4.5,4-7.3c0.4-1.3,0.8-2.5,1.2-3.3c1.4-3.6,3.1-5.5,5.1-5.8c3.4-0.5,6.5,3.5,9.7,7.7
		c2.4,3.1,5.2,6.7,7.1,6.6c0.7-0.1,1.3-0.6,2-1.7c1.1-9,3-13.8,6.1-15.6c3.2-1.8,6.9,0.1,10.9,2c4.9,2.4,10,4.8,15.1,1.8
		c0.9-2,0.6-4.4,0.4-7c-0.2-1.7-0.3-3.4-0.2-5.1c0.1-1.3,0.8-2.6,1.9-3.4c1.1-0.9,2.5-1.3,3.9-1.1c5.8,0.7,10.3,5.1,13.9,8.7
		c2.5,2.5,4.9,4.8,6.3,4.2c3.3-1.2,5-16.1,6-27.3l2,0.2c-2,22.6-4.3,27.9-7.3,29c-2.6,1-5.1-1.5-8.4-4.7c-3.4-3.3-7.6-7.5-12.7-8.1
		c-0.8-0.1-1.7,0.1-2.4,0.7c-0.6,0.5-1,1.2-1.1,2.1c-0.1,1.5,0,3,0.2,4.7c0.3,2.8,0.6,5.7-0.7,8.3l-0.1,0.3l-0.2,0.2
		c-6.1,3.9-12.3,0.9-17.3-1.5c-3.6-1.8-6.8-3.3-9.1-2c-2.5,1.4-4.2,6-5.1,14.2l0,0.2l-0.1,0.2c-1,1.8-2.3,2.8-3.7,2.9
		c-3,0.2-5.8-3.4-8.8-7.3c-2.6-3.4-5.6-7.3-7.9-7c-1.2,0.2-2.5,1.8-3.6,4.7c-0.4,0.8-0.8,1.9-1.1,3.1c-1,3.2-2.3,7.2-5,8.5
		C251.5,359.6,250.8,359.8,250.1,359.8z"/>
</g>
<g>
	<circle class="st1" cx="626.6" cy="317.4" r="3.3"/>
</g>
<g>
	<circle class="st1" cx="631.7" cy="331.2" r="3.3"/>
</g>
<g>
	<circle class="st1" cx="629.4" cy="348.5" r="3.3"/>
</g>
<g>
	<circle class="st1" cx="646.6" cy="334.3" r="3.3"/>
</g>
<g>
	<circle class="st1" cx="669.5" cy="357.3" r="3.3"/>
</g>
<g>
	<circle class="st1" cx="701.6" cy="334.5" r="3.3"/>
</g>
<g>
	<circle class="st1" cx="658.4" cy="345.9" r="3.3"/>
</g>
<g>
	<circle class="st1" cx="645.9" cy="346.6" r="3.3"/>
</g>
<g>
	<circle class="st1" cx="706.1" cy="349.7" r="3.3"/>
</g>
<g>
	<circle class="st1" cx="688.2" cy="341.3" r="3.3"/>
</g>
<g>
	<circle class="st1" cx="688.5" cy="360.2" r="3.3"/>
</g>
<g>
	<circle class="st1" cx="660.7" cy="361.6" r="3.3"/>
</g>
<g>
	<circle class="st1" cx="673.7" cy="341" r="3.3"/>
</g>
<g>
	<circle class="st1" cx="721.3" cy="344.7" r="3.3"/>
</g>
<g>
	<circle class="st1" cx="726.8" cy="323.5" r="3.3"/>
</g>
<g>
	<circle class="st1" cx="740.7" cy="338.9" r="3.3"/>
</g>
<g>
	<circle class="st1" cx="738" cy="324.5" r="3.3"/>
</g>
<g>
	<circle class="st1" cx="740.6" cy="303.7" r="3.3"/>
</g>
<g>
	<circle class="st1" cx="748.4" cy="311.9" r="3.3"/>
</g>
<g>
	<circle class="st1" cx="759.6" cy="319.5" r="3.3"/>
</g>
<g>
	<circle class="st1" cx="752.8" cy="332.2" r="3.3"/>
</g>
<g>
	<circle class="st1" cx="712.1" cy="331.9" r="3.3"/>
</g>
<g>
	
		<rect x="627.3" y="341.8" transform="matrix(0.9861 -0.166 0.166 0.9861 -47.2313 120.3344)" class="st0" width="138.1" height="2"/>
</g>
<g>
	<circle class="st1" cx="426.3" cy="317.4" r="3.3"/>
</g>
<g>
	<circle class="st1" cx="431.4" cy="331.2" r="3.3"/>
</g>
<g>
	<circle class="st1" cx="429.2" cy="348.5" r="3.3"/>
</g>
<g>
	<circle class="st1" cx="446.4" cy="334.3" r="3.3"/>
</g>
<g>
	<circle class="st1" cx="469.3" cy="357.3" r="3.3"/>
</g>
<g>
	<circle class="st1" cx="501.3" cy="334.5" r="3.3"/>
</g>
<g>
	<circle class="st1" cx="458.1" cy="345.9" r="3.3"/>
</g>
<g>
	<circle class="st1" cx="445.6" cy="346.6" r="3.3"/>
</g>
<g>
	<circle class="st1" cx="505.8" cy="349.7" r="3.3"/>
</g>
<g>
	<circle class="st1" cx="488" cy="341.3" r="3.3"/>
</g>
<g>
	<circle class="st1" cx="488.2" cy="360.2" r="3.3"/>
</g>
<g>
	<circle class="st1" cx="460.4" cy="361.6" r="3.3"/>
</g>
<g>
	<circle class="st1" cx="473.5" cy="341" r="3.3"/>
</g>
<g>
	<circle class="st1" cx="521" cy="344.7" r="3.3"/>
</g>
<g>
	<circle class="st1" cx="526.6" cy="323.5" r="3.3"/>
</g>
<g>
	<circle class="st1" cx="540.5" cy="338.9" r="3.3"/>
</g>
<g>
	<circle class="st1" cx="537.8" cy="324.5" r="3.3"/>
</g>
<g>
	<circle class="st1" cx="540.4" cy="303.7" r="3.3"/>
</g>
<g>
	<circle class="st1" cx="548.2" cy="311.9" r="3.3"/>
</g>
<g>
	<circle class="st1" cx="559.3" cy="319.5" r="3.3"/>
</g>
<g>
	<circle class="st1" cx="552.6" cy="332.2" r="3.3"/>
</g>
<g>
	<circle class="st1" cx="511.9" cy="331.9" r="3.3"/>
</g>
<g>
	<path class="st0" d="M464.4,355.3c-24.4,0-43.8-20.9-44-21.2l1.5-1.3c0.2,0.2,21.6,23.4,47.3,20.2c44.3-6.3,89.9-37,90.4-37.3
		l1.1,1.7c-0.5,0.3-46.5,31.3-91.2,37.6C467.7,355.2,466,355.3,464.4,355.3z"/>
</g>
<g>
	<g>
		<path class="st2" d="M47.1,128.7c-1.3-1.4-3.1-2.2-5.1-2.2c-3.7,0-6.7,3.2-6.7,6.9c0,3.7,3,6.9,6.7,6.9c1.9,0,3.7-0.9,5-2.2v2.3
			c-1.4,1-3.2,1.6-5,1.6c-4.7,0-8.6-3.8-8.6-8.5c0-4.8,3.9-8.6,8.6-8.6c1.8,0,3.5,0.5,5,1.6V128.7z"/>
	</g>
	<g>
		<path class="st2" d="M52,141.7h-1.8v-18.2H52V141.7z"/>
	</g>
	<g>
		<path class="st2" d="M64.7,141.7h-1.8v-1.4h0c-0.9,1.1-2.1,1.7-3.6,1.7c-3,0-5-2.6-5-5.4c0-2.9,1.9-5.5,5-5.5
			c1.4,0,2.7,0.7,3.5,1.8h0v-1.5h1.8V141.7z M56.2,136.4c0,2,1.2,3.9,3.4,3.9c2.3,0,3.5-1.8,3.5-3.9c0-2.1-1.3-3.7-3.5-3.7
			C57.5,132.7,56.2,134.4,56.2,136.4z"/>
	</g>
	<g>
		<path class="st2" d="M72.1,133.7c-0.2-0.5-0.8-1.1-1.4-1.1c-0.6,0-1.3,0.5-1.3,1.1c0,0.9,1.2,1.3,2.4,1.8c1.2,0.5,2.4,1.2,2.4,3
			c0,2-1.6,3.4-3.5,3.4c-1.7,0-3.1-1-3.7-2.6l1.6-0.7c0.4,1,0.9,1.7,2.1,1.7c0.9,0,1.7-0.6,1.7-1.6c0-2.3-4.7-1.5-4.7-4.8
			c0-1.7,1.4-2.9,3.1-2.9c1.2,0,2.3,0.8,2.8,1.9L72.1,133.7z"/>
	</g>
	<g>
		<path class="st2" d="M80.9,133.7c-0.2-0.5-0.8-1.1-1.4-1.1c-0.6,0-1.3,0.5-1.3,1.1c0,0.9,1.2,1.3,2.4,1.8c1.2,0.5,2.4,1.2,2.4,3
			c0,2-1.6,3.4-3.5,3.4c-1.7,0-3.1-1-3.7-2.6l1.6-0.7c0.4,1,0.9,1.7,2.1,1.7c0.9,0,1.7-0.6,1.7-1.6c0-2.3-4.7-1.5-4.7-4.8
			c0-1.7,1.4-2.9,3.1-2.9c1.2,0,2.3,0.8,2.8,1.9L80.9,133.7z"/>
	</g>
	<g>
		<path class="st2" d="M87.9,127.4c0,0.7-0.6,1.3-1.3,1.3s-1.3-0.5-1.3-1.3c0-0.7,0.6-1.3,1.3-1.3S87.9,126.7,87.9,127.4z
			 M87.6,141.7h-1.8v-10.3h1.8V141.7z"/>
	</g>
	<g>
		<path class="st2" d="M92.9,141.7h-1.8v-8.7h-1v-1.6h1v-4.1c0-0.9,0-1.9,0.5-2.7c0.6-0.9,1.6-1.3,2.7-1.3c0.4,0,0.8,0.1,1.3,0.2
			v1.8c-0.4-0.1-0.7-0.2-1.2-0.2c-1.4,0-1.4,1-1.4,2.8v3.5h2.6v1.6h-2.6V141.7z M99.4,127.4c0,0.7-0.6,1.3-1.3,1.3s-1.3-0.5-1.3-1.3
			c0-0.7,0.6-1.3,1.3-1.3S99.4,126.7,99.4,127.4z M99,141.7h-1.8v-10.3H99V141.7z"/>
	</g>
	<g>
		<path class="st2" d="M110.3,134.4L110.3,134.4c-0.9-1-1.9-1.7-3.3-1.7c-2.1,0-3.7,1.8-3.7,3.8c0,2,1.4,3.8,3.6,3.8
			c1.5,0,2.5-0.7,3.4-1.8h0v2.4c-1,0.7-2,1.1-3.3,1.1c-3.1,0-5.5-2.3-5.5-5.5c0-3.1,2.5-5.5,5.5-5.5c1.1,0,2.3,0.4,3.2,1V134.4z"/>
	</g>
	<g>
		<path class="st2" d="M122.6,141.7h-1.8v-1.4h0c-0.9,1.1-2.1,1.7-3.6,1.7c-3,0-5-2.6-5-5.4c0-2.9,1.9-5.5,5-5.5
			c1.4,0,2.7,0.7,3.5,1.8h0v-1.5h1.8V141.7z M114.1,136.4c0,2,1.2,3.9,3.4,3.9c2.3,0,3.5-1.8,3.5-3.9c0-2.1-1.3-3.7-3.5-3.7
			C115.4,132.7,114.1,134.4,114.1,136.4z"/>
	</g>
	<g>
		<path class="st2" d="M127.7,141.7h-1.8v-8.7h-1.1v-1.6h1.1v-3.7h1.8v3.7h1.8v1.6h-1.8V141.7z"/>
	</g>
	<g>
		<path class="st2" d="M133.6,127.4c0,0.7-0.6,1.3-1.3,1.3s-1.3-0.5-1.3-1.3c0-0.7,0.6-1.3,1.3-1.3S133.6,126.7,133.6,127.4z
			 M133.2,141.7h-1.8v-10.3h1.8V141.7z"/>
	</g>
	<g>
		<path class="st2" d="M135.9,136.5c0-3,2.4-5.5,5.4-5.5c3,0,5.4,2.4,5.4,5.5c0,3-2.4,5.4-5.4,5.4
			C138.4,141.9,135.9,139.6,135.9,136.5z M137.7,136.5c0,2.1,1.5,3.8,3.7,3.8c2.2,0,3.7-1.7,3.7-3.8c0-2.1-1.5-3.8-3.7-3.8
			C139.2,132.7,137.7,134.4,137.7,136.5z"/>
	</g>
	<g>
		<path class="st2" d="M151,132.6L151,132.6c0.8-1,1.7-1.5,3-1.5c2.9,0,3.5,2.1,3.5,4.5v6.1h-1.8v-5.8c0-1.7-0.1-3.2-2.2-3.2
			c-2.4,0-2.6,2.2-2.6,4.1v4.9h-1.8v-10.3h1.8V132.6z"/>
	</g>
</g>
<g>
	<g>
		<path class="st2" d="M35.4,332.4h-1.8v-16.6h2.4c3.1,0,6.1,0.8,6.1,4.6c0,2.6-1.6,4.4-4.2,4.6l5.3,7.4h-2.3l-5-7.3h-0.5V332.4z
			 M35.4,323.5h0.6c2.1,0,4.2-0.4,4.2-3c0-2.7-2-3-4.2-3h-0.6V323.5z"/>
	</g>
	<g>
		<path class="st2" d="M46.3,327.6c0,1.9,1.4,3.5,3.4,3.5c1.5,0,2.5-0.9,3.1-2.1l1.5,0.9c-1,1.8-2.7,2.9-4.8,2.9
			c-3.1,0-5.1-2.4-5.1-5.3c0-3.1,1.8-5.6,5-5.6c3.3,0,5.1,2.8,4.9,5.8H46.3z M52.6,326.1c-0.2-1.5-1.5-2.7-3-2.7
			c-1.5,0-2.9,1.2-3.1,2.7H52.6z"/>
	</g>
	<g>
		<path class="st2" d="M66.2,331.9c0,1.6,0,3.1-1.1,4.4c-1,1.2-2.5,1.8-4,1.8c-2.9,0-5-1.8-5.1-4.8h1.8c0,1.9,1.4,3.1,3.3,3.1
			c2.7,0,3.3-2,3.3-4.3v-1.2h0c-0.8,1.1-2.2,1.7-3.6,1.7c-3,0-4.9-2.5-4.9-5.4c0-2.9,1.9-5.5,5-5.5c1.4,0,2.7,0.6,3.5,1.8h0V322h1.8
			V331.9z M57.7,327.1c0,2,1.2,3.9,3.4,3.9c2.3,0,3.5-1.8,3.5-3.9c0-2.1-1.3-3.7-3.5-3.7C59,323.4,57.7,325.2,57.7,327.1z"/>
	</g>
	<g>
		<path class="st2" d="M71.3,323.1L71.3,323.1c0.7-0.8,1.2-1.4,2.3-1.4c0.6,0,1.1,0.2,1.6,0.5l-0.8,1.6c-0.4-0.2-0.6-0.5-1.1-0.5
			c-1.9,0-2,2.5-2,3.8v5.2h-1.8V322h1.8V323.1z"/>
	</g>
	<g>
		<path class="st2" d="M77.9,327.6c0,1.9,1.4,3.5,3.4,3.5c1.5,0,2.5-0.9,3.1-2.1l1.5,0.9c-1,1.8-2.7,2.9-4.8,2.9
			c-3.1,0-5.1-2.4-5.1-5.3c0-3.1,1.8-5.6,5-5.6c3.3,0,5.1,2.8,4.9,5.8H77.9z M84.1,326.1c-0.2-1.5-1.5-2.7-3-2.7
			c-1.5,0-2.9,1.2-3.1,2.7H84.1z"/>
	</g>
	<g>
		<path class="st2" d="M92.6,324.4c-0.2-0.5-0.8-1.1-1.4-1.1c-0.6,0-1.3,0.5-1.3,1.1c0,0.9,1.2,1.3,2.4,1.8c1.2,0.5,2.4,1.2,2.4,3
			c0,2-1.6,3.4-3.5,3.4c-1.7,0-3.1-1-3.7-2.6l1.6-0.7c0.4,1,0.9,1.7,2.1,1.7c0.9,0,1.7-0.6,1.7-1.6c0-2.3-4.7-1.5-4.7-4.8
			c0-1.7,1.4-2.9,3.1-2.9c1.2,0,2.3,0.8,2.8,1.9L92.6,324.4z"/>
	</g>
	<g>
		<path class="st2" d="M101.4,324.4c-0.2-0.5-0.8-1.1-1.4-1.1c-0.6,0-1.3,0.5-1.3,1.1c0,0.9,1.2,1.3,2.4,1.8c1.2,0.5,2.4,1.2,2.4,3
			c0,2-1.6,3.4-3.5,3.4c-1.7,0-3.1-1-3.7-2.6l1.6-0.7c0.4,1,0.9,1.7,2.1,1.7c0.9,0,1.7-0.6,1.7-1.6c0-2.3-4.7-1.5-4.7-4.8
			c0-1.7,1.4-2.9,3.1-2.9c1.2,0,2.3,0.8,2.8,1.9L101.4,324.4z"/>
	</g>
	<g>
		<path class="st2" d="M108.4,318.1c0,0.7-0.6,1.3-1.3,1.3s-1.3-0.5-1.3-1.3c0-0.7,0.6-1.3,1.3-1.3S108.4,317.5,108.4,318.1z
			 M108.1,332.4h-1.8V322h1.8V332.4z"/>
	</g>
	<g>
		<path class="st2" d="M110.8,327.2c0-3,2.4-5.5,5.4-5.5c3,0,5.4,2.4,5.4,5.5c0,3-2.4,5.4-5.4,5.4
			C113.2,332.7,110.8,330.3,110.8,327.2z M112.6,327.2c0,2.1,1.5,3.8,3.7,3.8c2.2,0,3.7-1.7,3.7-3.8c0-2.1-1.5-3.8-3.7-3.8
			C114.1,323.4,112.6,325.1,112.6,327.2z"/>
	</g>
	<g>
		<path class="st2" d="M125.8,323.3L125.8,323.3c0.8-1,1.7-1.5,3-1.5c2.9,0,3.5,2.1,3.5,4.5v6.1h-1.8v-5.8c0-1.7-0.1-3.2-2.2-3.2
			c-2.4,0-2.6,2.2-2.6,4.1v4.9h-1.8V322h1.8V323.3z"/>
	</g>
</g>
<g>
	<g>
		<path class="st2" d="M248.8,39.4c0,3.5-2.9,6.3-6.4,6.3c-3.5,0-6.4-2.8-6.4-6.3c0-3.5,2.9-6.4,6.4-6.4
			C245.9,33,248.8,35.9,248.8,39.4z M237.4,39.4c0,2.8,2.2,5.1,5,5.1s5-2.3,5-5.1c0-2.8-2.2-5.1-5-5.1S237.4,36.6,237.4,39.4z"/>
	</g>
	<g>
		<path class="st2" d="M253.2,43l2.3-5.1h1.5l-3.7,8.1l-3.8-8.1h1.5L253.2,43z"/>
	</g>
	<g>
		<path class="st2" d="M258.8,41.9c0,1.4,1,2.6,2.5,2.6c1.1,0,1.8-0.7,2.3-1.6l1.1,0.6c-0.7,1.4-2,2.1-3.5,2.1
			c-2.3,0-3.7-1.7-3.7-3.9c0-2.3,1.3-4.1,3.7-4.1c2.5,0,3.8,2,3.6,4.3H258.8z M263.5,40.8c-0.2-1.1-1.1-2-2.2-2
			c-1.1,0-2.2,0.9-2.3,2H263.5z"/>
	</g>
	<g>
		<path class="st2" d="M267.8,38.7L267.8,38.7c0.5-0.6,0.9-1,1.7-1c0.4,0,0.8,0.1,1.2,0.4l-0.6,1.2c-0.3-0.2-0.4-0.3-0.8-0.3
			c-1.4,0-1.5,1.8-1.5,2.8v3.8h-1.3v-7.6h1.3V38.7z"/>
	</g>
	<g>
		<path class="st2" d="M273.6,45.5h-1.3V39h-0.7v-1.2h0.7v-3c0-0.6,0-1.4,0.3-2c0.4-0.7,1.2-1,2-1c0.3,0,0.6,0.1,0.9,0.2v1.3
			c-0.3-0.1-0.6-0.2-0.9-0.2c-1.1,0-1.1,0.7-1.1,2.1v2.6h1.9V39h-1.9V45.5z M278.4,35c0,0.5-0.4,0.9-0.9,0.9c-0.5,0-0.9-0.4-0.9-0.9
			c0-0.5,0.4-0.9,0.9-0.9C278,34,278.4,34.5,278.4,35z M278.1,45.5h-1.3v-7.6h1.3V45.5z"/>
	</g>
	<g>
		<path class="st2" d="M282.2,45.5h-1.3V39h-0.8v-1.2h0.8v-2.7h1.3v2.7h1.4V39h-1.4V45.5z"/>
	</g>
	<g>
		<path class="st2" d="M286.1,45.5h-1.3V39H284v-1.2h0.8v-2.7h1.3v2.7h1.4V39h-1.4V45.5z"/>
	</g>
	<g>
		<path class="st2" d="M290.5,35c0,0.5-0.4,0.9-0.9,0.9c-0.5,0-0.9-0.4-0.9-0.9c0-0.5,0.4-0.9,0.9-0.9C290,34,290.5,34.5,290.5,35z
			 M290.2,45.5h-1.3v-7.6h1.3V45.5z"/>
	</g>
	<g>
		<path class="st2" d="M294.2,38.8L294.2,38.8c0.6-0.7,1.3-1.1,2.2-1.1c2.1,0,2.6,1.5,2.6,3.3v4.5h-1.3v-4.3c0-1.2-0.1-2.3-1.6-2.3
			c-1.8,0-1.9,1.7-1.9,3v3.6h-1.3v-7.6h1.3V38.8z"/>
	</g>
	<g>
		<path class="st2" d="M308.4,45.1c0,1.2,0,2.3-0.8,3.3c-0.7,0.9-1.8,1.3-3,1.3c-2.1,0-3.7-1.3-3.8-3.5h1.3c0,1.4,1,2.3,2.4,2.3
			c2,0,2.5-1.5,2.5-3.2v-0.9h0c-0.6,0.8-1.6,1.3-2.7,1.3c-2.2,0-3.6-1.9-3.6-4c0-2.1,1.4-4.1,3.7-4.1c1.1,0,2,0.5,2.6,1.3h0v-1.1
			h1.3V45.1z M302.1,41.6c0,1.5,0.9,2.9,2.5,2.9c1.7,0,2.6-1.3,2.6-2.9c0-1.5-1-2.8-2.6-2.8C303.1,38.8,302.1,40.1,302.1,41.6z"/>
	</g>
</g>
<g>
	<g>
		<path class="st2" d="M456.4,46.5H455V34.3h1.8c2.3,0,4.5,0.6,4.5,3.4c0,1.9-1.2,3.2-3.1,3.4l3.9,5.5h-1.7l-3.7-5.4h-0.3V46.5z
			 M456.4,39.9h0.4c1.5,0,3.1-0.3,3.1-2.2c0-2-1.5-2.2-3.1-2.2h-0.4V39.9z"/>
	</g>
	<g>
		<path class="st2" d="M465.6,36c0,0.5-0.4,0.9-0.9,0.9c-0.5,0-0.9-0.4-0.9-0.9c0-0.5,0.4-0.9,0.9-0.9
			C465.2,35.1,465.6,35.5,465.6,36z M465.4,46.5h-1.3v-7.6h1.3V46.5z"/>
	</g>
	<g>
		<path class="st2" d="M475,46.2c0,1.2,0,2.3-0.8,3.3c-0.7,0.9-1.8,1.3-3,1.3c-2.1,0-3.7-1.3-3.8-3.5h1.3c0,1.4,1,2.3,2.4,2.3
			c2,0,2.5-1.5,2.5-3.2v-0.9h0c-0.6,0.8-1.6,1.3-2.7,1.3c-2.2,0-3.6-1.9-3.6-4c0-2.1,1.4-4.1,3.7-4.1c1.1,0,2,0.5,2.6,1.3h0v-1.1
			h1.3V46.2z M468.7,42.6c0,1.5,0.9,2.9,2.5,2.9c1.7,0,2.6-1.4,2.6-2.9c0-1.5-1-2.8-2.6-2.8C469.7,39.9,468.7,41.2,468.7,42.6z"/>
	</g>
	<g>
		<path class="st2" d="M478.8,33.1v6.7l0,0c0.5-0.7,1.2-1.1,2.2-1.1c2.1,0,2.6,1.5,2.6,3.3v4.5h-1.3v-4.3c0-1.2-0.1-2.3-1.6-2.3
			c-1.8,0-1.9,1.7-1.9,3v3.6h-1.3V33.1H478.8z"/>
	</g>
	<g>
		<path class="st2" d="M487.5,46.5h-1.3v-6.4h-0.8v-1.2h0.8v-2.7h1.3v2.7h1.4v1.2h-1.4V46.5z"/>
	</g>
	<g>
		<path class="st2" d="M496.4,35.5v3.6h4.1v1.3h-4.1v6.1H495V34.3h5.6v1.3H496.4z"/>
	</g>
	<g>
		<path class="st2" d="M504.6,36c0,0.5-0.4,0.9-0.9,0.9c-0.5,0-0.9-0.4-0.9-0.9c0-0.5,0.4-0.9,0.9-0.9
			C504.2,35.1,504.6,35.5,504.6,36z M504.3,46.5H503v-7.6h1.3V46.5z"/>
	</g>
	<g>
		<path class="st2" d="M508.4,46.5h-1.3v-6.4h-0.8v-1.2h0.8v-2.7h1.3v2.7h1.4v1.2h-1.4V46.5z"/>
	</g>
</g>
<g>
	<g>
		<path class="st2" d="M645,38.2c0,0.9,0,2,0.5,2.7c0.5,0.7,1.6,1.2,2.5,1.2c0.9,0,1.8-0.4,2.4-1.1c0.7-0.8,0.6-1.9,0.6-2.8v-7.3
			h1.4v7.7c0,1.3-0.1,2.4-1.1,3.4c-0.8,0.9-2.1,1.4-3.3,1.4c-1.2,0-2.3-0.4-3.2-1.3c-1.1-1-1.2-2.1-1.2-3.5v-7.7h1.4V38.2z"/>
	</g>
	<g>
		<path class="st2" d="M656.1,36.5L656.1,36.5c0.6-0.7,1.3-1.1,2.2-1.1c2.1,0,2.6,1.5,2.6,3.3v4.5h-1.3v-4.3c0-1.2-0.1-2.3-1.6-2.3
			c-1.8,0-1.9,1.7-1.9,3v3.6h-1.3v-7.6h1.3V36.5z"/>
	</g>
	<g>
		<path class="st2" d="M669.1,42.1L669.1,42.1c-0.7,0.8-1.6,1.3-2.7,1.3c-2.2,0-3.7-1.9-3.7-4c0-2.2,1.4-4.1,3.7-4.1
			c1,0,2,0.5,2.6,1.3h0v-6.9h1.3v13.4h-1.3V42.1z M664.1,39.3c0,1.5,0.9,2.9,2.5,2.9c1.7,0,2.6-1.3,2.6-2.9c0-1.5-1-2.8-2.6-2.8
			C665.1,36.6,664.1,37.9,664.1,39.3z"/>
	</g>
	<g>
		<path class="st2" d="M673.5,39.7c0,1.4,1,2.6,2.5,2.6c1.1,0,1.8-0.7,2.3-1.6l1.1,0.6c-0.7,1.4-2,2.1-3.5,2.1
			c-2.3,0-3.7-1.7-3.7-3.9c0-2.3,1.3-4.1,3.7-4.1c2.5,0,3.8,2,3.6,4.3H673.5z M678.1,38.6c-0.2-1.1-1.1-2-2.2-2
			c-1.1,0-2.2,0.9-2.3,2H678.1z"/>
	</g>
	<g>
		<path class="st2" d="M682.5,36.4L682.5,36.4c0.5-0.6,0.9-1,1.7-1c0.4,0,0.8,0.1,1.2,0.4l-0.6,1.2c-0.3-0.2-0.4-0.3-0.8-0.3
			c-1.4,0-1.5,1.8-1.5,2.8v3.8h-1.3v-7.6h1.3V36.4z"/>
	</g>
	<g>
		<path class="st2" d="M688.2,43.2h-1.3v-6.4h-0.7v-1.2h0.7v-3c0-0.6,0-1.4,0.3-2c0.4-0.7,1.2-1,2-1c0.3,0,0.6,0.1,0.9,0.2v1.3
			c-0.3-0.1-0.6-0.2-0.9-0.2c-1.1,0-1.1,0.7-1.1,2.1v2.6h1.9v1.2h-1.9V43.2z M693,32.7c0,0.5-0.4,0.9-0.9,0.9
			c-0.5,0-0.9-0.4-0.9-0.9c0-0.5,0.4-0.9,0.9-0.9C692.6,31.8,693,32.2,693,32.7z M692.7,43.2h-1.3v-7.6h1.3V43.2z"/>
	</g>
	<g>
		<path class="st2" d="M696.8,43.2h-1.3v-6.4h-0.8v-1.2h0.8v-2.7h1.3v2.7h1.4v1.2h-1.4V43.2z"/>
	</g>
	<g>
		<path class="st2" d="M700.7,43.2h-1.3v-6.4h-0.8v-1.2h0.8v-2.7h1.3v2.7h1.4v1.2h-1.4V43.2z"/>
	</g>
	<g>
		<path class="st2" d="M705.1,32.7c0,0.5-0.4,0.9-0.9,0.9c-0.5,0-0.9-0.4-0.9-0.9c0-0.5,0.4-0.9,0.9-0.9
			C704.7,31.8,705.1,32.2,705.1,32.7z M704.8,43.2h-1.3v-7.6h1.3V43.2z"/>
	</g>
	<g>
		<path class="st2" d="M708.8,36.5L708.8,36.5c0.6-0.7,1.3-1.1,2.2-1.1c2.1,0,2.6,1.5,2.6,3.3v4.5h-1.3v-4.3c0-1.2-0.1-2.3-1.6-2.3
			c-1.8,0-1.9,1.7-1.9,3v3.6h-1.3v-7.6h1.3V36.5z"/>
	</g>
	<g>
		<path class="st2" d="M723,42.8c0,1.2,0,2.3-0.8,3.3c-0.7,0.9-1.8,1.3-3,1.3c-2.1,0-3.7-1.3-3.8-3.5h1.3c0,1.4,1,2.3,2.4,2.3
			c2,0,2.5-1.5,2.5-3.2v-0.9h0c-0.6,0.8-1.6,1.3-2.7,1.3c-2.2,0-3.6-1.9-3.6-4c0-2.1,1.4-4.1,3.7-4.1c1.1,0,2,0.5,2.6,1.3h0v-1.1
			h1.3V42.8z M716.7,39.3c0,1.5,0.9,2.9,2.5,2.9c1.7,0,2.6-1.3,2.6-2.9c0-1.5-1-2.8-2.6-2.8C717.7,36.6,716.7,37.9,716.7,39.3z"/>
	</g>
</g>
<g>
	<polygon class="st2" points="346.7,384.6 196.7,384.6 196.7,252.5 198.7,252.5 198.7,382.6 346.7,382.6 	"/>
</g>
<g>
	<polygon class="st2" points="556.9,384.6 406.9,384.6 406.9,252.5 408.9,252.5 408.9,382.6 556.9,382.6 	"/>
</g>
<g>
	<polygon class="st2" points="757.8,384.6 607.9,384.6 607.9,252.5 609.9,252.5 609.9,382.6 757.8,382.6 	"/>
</g>
</svg>
